name rise43.5482peak65.4966fall89.1036.mot
datacolumns 19
datarows 27
range 6.55497500000000 6.59830500000000
endheader
time	ground_force1_vx	ground_force1_vy	ground_force1_vz	ground_force1_px	ground_force1_py	ground_force1_pz	ground_force2_vx	ground_force2_vy	ground_force2_vz	ground_force2_px	ground_force2_py	ground_force2_pz	ground_torque1_x	ground_torque1_y	ground_torque1_z	ground_torque2_x	ground_torque2_y	ground_torque2_z	
6.55497500000000	64.01872100000000	794.05034699999999	59.62913000000000	0.27317700000000	0.00000000000000	0.11131300000000	0.00000000000000	0.00000000000000	0.00000000000000	0.00000000000000	0.00000000000000	0.00000000000000	0.00000000000000	18.09821600000000	0.00000000000000	0.00000000000000	0.00000000000000	0.00000000000000	
6.55663500000000	63.39012100000000	797.00369799999999	59.74746200000000	0.27227400000000	0.00000000000000	0.11129400000000	0.00000000000000	0.00000000000000	0.00000000000000	0.00000000000000	0.00000000000000	0.00000000000000	0.00000000000000	18.15741400000000	0.00000000000000	0.00000000000000	0.00000000000000	0.00000000000000	
6.55830200000000	62.76036300000000	799.76596300000006	59.86096900000000	0.27137500000000	0.00000000000000	0.11127600000000	0.00000000000000	0.00000000000000	0.00000000000000	0.00000000000000	0.00000000000000	0.00000000000000	0.00000000000000	18.21450900000000	0.00000000000000	0.00000000000000	0.00000000000000	0.00000000000000	
6.55997400000000	62.13016100000000	802.33620399999995	59.96950800000000	0.27047900000000	0.00000000000000	0.11126100000000	0.00000000000000	0.00000000000000	0.00000000000000	0.00000000000000	0.00000000000000	0.00000000000000	0.00000000000000	18.26932500000000	0.00000000000000	0.00000000000000	0.00000000000000	0.00000000000000	
6.56163500000000	61.50016900000000	804.71377800000005	60.07288000000000	0.26958600000000	0.00000000000000	0.11124700000000	0.00000000000000	0.00000000000000	0.00000000000000	0.00000000000000	0.00000000000000	0.00000000000000	0.00000000000000	18.32166900000000	0.00000000000000	0.00000000000000	0.00000000000000	0.00000000000000	
6.56330000000000	60.87097500000000	806.89834199999996	60.17083900000000	0.26869500000000	0.00000000000000	0.11123400000000	0.00000000000000	0.00000000000000	0.00000000000000	0.00000000000000	0.00000000000000	0.00000000000000	0.00000000000000	18.37133000000000	0.00000000000000	0.00000000000000	0.00000000000000	0.00000000000000	
6.56497300000000	60.24310900000000	808.88986299999999	60.26309800000000	0.26780400000000	0.00000000000000	0.11122400000000	0.00000000000000	0.00000000000000	0.00000000000000	0.00000000000000	0.00000000000000	0.00000000000000	0.00000000000000	18.41808600000000	0.00000000000000	0.00000000000000	0.00000000000000	0.00000000000000	
6.56664200000000	59.61704500000000	810.68861900000002	60.34933000000000	0.26691200000000	0.00000000000000	0.11121500000000	0.00000000000000	0.00000000000000	0.00000000000000	0.00000000000000	0.00000000000000	0.00000000000000	0.00000000000000	18.46170200000000	0.00000000000000	0.00000000000000	0.00000000000000	0.00000000000000	
6.56830700000000	58.99319800000000	812.29520400000001	60.42917700000000	0.26602000000000	0.00000000000000	0.11120800000000	0.00000000000000	0.00000000000000	0.00000000000000	0.00000000000000	0.00000000000000	0.00000000000000	0.00000000000000	18.50193900000000	0.00000000000000	0.00000000000000	0.00000000000000	0.00000000000000	
6.56997200000000	58.37193300000000	813.71053400000005	60.50225400000000	0.26512600000000	0.00000000000000	0.11120200000000	0.00000000000000	0.00000000000000	0.00000000000000	0.00000000000000	0.00000000000000	0.00000000000000	0.00000000000000	18.53854900000000	0.00000000000000	0.00000000000000	0.00000000000000	0.00000000000000	
6.57163700000000	57.75356500000000	814.93584399999997	60.56815400000000	0.26422800000000	0.00000000000000	0.11119800000000	0.00000000000000	0.00000000000000	0.00000000000000	0.00000000000000	0.00000000000000	0.00000000000000	0.00000000000000	18.57128300000000	0.00000000000000	0.00000000000000	0.00000000000000	0.00000000000000	
6.57330400000000	57.13836000000000	815.97268999999994	60.62645700000000	0.26332800000000	0.00000000000000	0.11119600000000	0.00000000000000	0.00000000000000	0.00000000000000	0.00000000000000	0.00000000000000	0.00000000000000	0.00000000000000	18.59989500000000	0.00000000000000	0.00000000000000	0.00000000000000	0.00000000000000	
6.57496700000000	56.52654200000000	816.82295099999999	60.67672900000000	0.26242200000000	0.00000000000000	0.11119500000000	0.00000000000000	0.00000000000000	0.00000000000000	0.00000000000000	0.00000000000000	0.00000000000000	0.00000000000000	18.62413800000000	0.00000000000000	0.00000000000000	0.00000000000000	0.00000000000000	
6.57663900000000	55.91829200000000	817.48882200000003	60.71853400000000	0.26151200000000	0.00000000000000	0.11119500000000	0.00000000000000	0.00000000000000	0.00000000000000	0.00000000000000	0.00000000000000	0.00000000000000	0.00000000000000	18.64377400000000	0.00000000000000	0.00000000000000	0.00000000000000	0.00000000000000	
6.57830500000000	55.31375600000000	817.97281499999997	60.75143600000000	0.26059600000000	0.00000000000000	0.11119700000000	0.00000000000000	0.00000000000000	0.00000000000000	0.00000000000000	0.00000000000000	0.00000000000000	0.00000000000000	18.65857200000000	0.00000000000000	0.00000000000000	0.00000000000000	0.00000000000000	
6.57997000000000	54.71304200000000	818.27775299999996	60.77500700000000	0.25967400000000	0.00000000000000	0.11120100000000	0.00000000000000	0.00000000000000	0.00000000000000	0.00000000000000	0.00000000000000	0.00000000000000	0.00000000000000	18.66831200000000	0.00000000000000	0.00000000000000	0.00000000000000	0.00000000000000	
6.58163600000000	54.11623000000000	818.40676599999995	60.78882800000000	0.25874400000000	0.00000000000000	0.11120600000000	0.00000000000000	0.00000000000000	0.00000000000000	0.00000000000000	0.00000000000000	0.00000000000000	0.00000000000000	18.67278800000000	0.00000000000000	0.00000000000000	0.00000000000000	0.00000000000000	
6.58330000000000	53.52336900000000	818.36328200000003	60.79249700000000	0.25780700000000	0.00000000000000	0.11121200000000	0.00000000000000	0.00000000000000	0.00000000000000	0.00000000000000	0.00000000000000	0.00000000000000	0.00000000000000	18.67180800000000	0.00000000000000	0.00000000000000	0.00000000000000	0.00000000000000	
6.58497300000000	52.93448500000000	818.15102200000001	60.78563400000000	0.25686200000000	0.00000000000000	0.11122000000000	0.00000000000000	0.00000000000000	0.00000000000000	0.00000000000000	0.00000000000000	0.00000000000000	0.00000000000000	18.66519900000000	0.00000000000000	0.00000000000000	0.00000000000000	0.00000000000000	
6.58663700000000	52.34958200000000	817.77399000000003	60.76788400000000	0.25590800000000	0.00000000000000	0.11122800000000	0.00000000000000	0.00000000000000	0.00000000000000	0.00000000000000	0.00000000000000	0.00000000000000	0.00000000000000	18.65280700000000	0.00000000000000	0.00000000000000	0.00000000000000	0.00000000000000	
6.58830700000000	51.76864500000000	817.23646199999996	60.73892100000000	0.25494500000000	0.00000000000000	0.11123800000000	0.00000000000000	0.00000000000000	0.00000000000000	0.00000000000000	0.00000000000000	0.00000000000000	0.00000000000000	18.63449600000000	0.00000000000000	0.00000000000000	0.00000000000000	0.00000000000000	
6.58996900000000	51.19164400000000	816.54297999999994	60.69845300000000	0.25397300000000	0.00000000000000	0.11124900000000	0.00000000000000	0.00000000000000	0.00000000000000	0.00000000000000	0.00000000000000	0.00000000000000	0.00000000000000	18.61015800000000	0.00000000000000	0.00000000000000	0.00000000000000	0.00000000000000	
6.59163400000000	50.61853500000000	815.69833500000004	60.64622400000000	0.25299100000000	0.00000000000000	0.11126000000000	0.00000000000000	0.00000000000000	0.00000000000000	0.00000000000000	0.00000000000000	0.00000000000000	0.00000000000000	18.57970300000000	0.00000000000000	0.00000000000000	0.00000000000000	0.00000000000000	
6.59330200000000	50.04926600000000	814.70755699999995	60.58201800000000	0.25200000000000	0.00000000000000	0.11127300000000	0.00000000000000	0.00000000000000	0.00000000000000	0.00000000000000	0.00000000000000	0.00000000000000	0.00000000000000	18.54307100000000	0.00000000000000	0.00000000000000	0.00000000000000	0.00000000000000	
6.59497200000000	49.48377600000000	813.57590300000004	60.50566000000000	0.25099900000000	0.00000000000000	0.11128600000000	0.00000000000000	0.00000000000000	0.00000000000000	0.00000000000000	0.00000000000000	0.00000000000000	0.00000000000000	18.50022300000000	0.00000000000000	0.00000000000000	0.00000000000000	0.00000000000000	
6.59663400000000	48.92200000000000	812.30884100000003	60.41702200000000	0.24998700000000	0.00000000000000	0.11130000000000	0.00000000000000	0.00000000000000	0.00000000000000	0.00000000000000	0.00000000000000	0.00000000000000	0.00000000000000	18.45115000000000	0.00000000000000	0.00000000000000	0.00000000000000	0.00000000000000	
6.59830500000000	48.36386900000000	810.91203599999994	60.31602100000000	0.24896600000000	0.00000000000000	0.11131500000000	0.00000000000000	0.00000000000000	0.00000000000000	0.00000000000000	0.00000000000000	0.00000000000000	0.00000000000000	18.39586800000000	0.00000000000000	0.00000000000000	0.00000000000000	0.00000000000000	
